<svg xmlns="http://www.w3.org/2000/svg" fill="none" viewBox="0 0 68 50">
  <path fill="#FE9D43" fill-rule="evenodd" d="M63.1836 30.9329c.3381-.027.66-.0527.9202-.1198.5255-.0142.9362-.0793 1.3425-.1438l.0331-.0053c.5106-.0809.9389-.3275 1.2893-.7108.5704-.6237.6373-1.3633.5292-2.1571-.0639-.4695-.1113-.9414-.1588-1.4132-.019-.1891-.038-.3781-.0581-.567-.0239-.2253-.0469-.4506-.07-.676-.0251-.2449-.0502-.4898-.0763-.7346-.0338-.3165-.0683-.6329-.1028-.9493-.036-.3292-.0719-.6584-.107-.9877-.0244-.2295-.0477-.459-.071-.6886-.0245-.2406-.0489-.4812-.0746-.7216-.0331-.3097-.0672-.6193-.1012-.9289-.037-.3358-.074-.6717-.1097-1.0076-.0269-.2536-.0523-.5074-.0776-.7611-.0231-.2311-.0462-.4622-.0705-.6932-.0282-.2687-.0577-.5372-.0872-.8057-.0261-.2375-.0522-.4751-.0774-.7127-.0248-.2331-.0487-.4662-.0725-.6994-.025-.2445-.0501-.4889-.0761-.7333-.0259-.2428-.0527-.4855-.0795-.7283-.0283-.2558-.0566-.5117-.0837-.7676-.0243-.229-.0475-.458-.0707-.687-.026-.256-.0519-.512-.0794-.7679-.0241-.2243-.0496-.4485-.0752-.6727-.0296-.2594-.0591-.5189-.0864-.7785-.0342-.32425-.0665-.64864-.0988-.97305-.03-.30019-.0599-.60039-.0913-.90045-.0397-.38066-.081-.76118-.1222-1.14169-.0303-.27966-.0607-.55932-.0904-.83903-.0239-.22536-.0469-.45082-.07-.67627-.0251-.24481-.0501-.48962-.0762-.7343-.051-.47723-.1031-.95434-.1552-1.43145-.0184-.16844-.0367-.33689-.0551-.50534-.0149-.13666-.027-.27385-.0391-.41105-.0269-.30481-.0539-.60963-.1111-.90867C64.319.728588 63.3642-.04063 62.2794.001698c-.4641.018127-.9269.07178-1.3896.125412-.1772.020534-.3543.041065-.5315.0596-.4308.04506-.8615.091881-1.2922.138707-.3554.038646-.7109.077293-1.0665.114948-.3139.03326-.628.065292-.9421.097324-.3114.031761-.6228.063523-.934.096478-.3213.034023-.6425.069195-.9637.104366-.318.034821-.6359.069641-.954.103348-.3172.0336-.6344.066017-.9517.098434-.3082.031487-.6163.062975-.9243.095545-.4101.04335-.82.08758-1.23.1318-.3763.04059-.7525.08118-1.1288.1211-.2978.03158-.5956.06233-.8934.09308-.3128.0323-.6256.06459-.9383.09786-.3731.03971-.7462.08017-1.1193.12063-.4132.0448-.8263.08961-1.2395.13339-.3139.03324-.628.06526-.942.09727-.3111.03171-.6222.06343-.9332.09635-.3197.03385-.6393.06888-.9589.1039-.3196.03503-.6392.07005-.9589.1039-.314.03327-.6281.06534-.9422.09741-.3113.03179-.6227.06357-.9339.09652-.3213.03401-.6425.06915-.9636.1043-.318.0348-.636.06961-.9541.10329-.3097.03282-.6195.06448-.9294.09615-.3156.03225-.6311.0645-.9465.09796-.3918.04156-.7834.08413-1.175.12669-.3871.04208-.7743.08416-1.1615.12527-.3104.03294-.6209.06469-.9314.09644-.3076.03144-.6151.06289-.9225.09549-.3864.04098-.7727.08287-1.159.12475-.3999.04336-.7998.08673-1.1998.12908-.3137.03324-.6276.06525-.9415.09726-.3113.03174-.6225.06348-.9336.09641-.3197.03385-.6393.06887-.9589.10388s-.6391.07003-.9589.10388c-.3188.03379-.6379.06638-.9569.09897-.3064.0313-.6128.0626-.9191.09496-.415.04386-.8299.08864-1.2448.13343-.3713.04007-.7426.08015-1.114.11956-.2994.03177-.5989.06268-.8984.0936-.3111.03212-.6222.06424-.9333.0973-.312.03317-.6239.06719-.9359.10121-.3344.03648-.6689.07295-1.0035.10838-.3042.03222-.6085.06337-.9128.09451-.3137.03212-.6274.06422-.941.09751-.3864.04099-.7728.08289-1.1591.12479-.3998.04337-.7996.08674-1.1996.12909-.3156.03345-.6313.06566-.947.09787-.3097.0316-.6195.06319-.9291.09597-.3227.03416-.6453.06948-.968.10481-.3165.03465-.633.06931-.94965.10286-.31424.03327-.62862.06541-.94299.09754-.31104.0318-.62208.06359-.933.09649-.32128.03402-.64244.06914-.96359.10425-.31794.03477-.63588.06953-.95394.10324-.30495.03229-.61003.0635-.9151.09472-.32032.03277-.64063.06555-.96081.09957-.21585.02294-.43152.04807-.64719.07319-.41568.04842-.83134.09683-1.24825.12966-.7104.05598-1.36784.21164-1.856825.78296-.294602.34425-.476091.74112-.524842 1.18916-.041667.38279.001082.76331.043778 1.14334.01649.14679.032973.2935.04458.44024.015179.192.037229.3845.059288.577.012036.105.024075.2101.035003.3151.020135.1937.042973.3872.06581.5806.020872.1768.041743.3536.06055.5306.017784.1678.033167.3359.048549.504.014554.159.029108.318.045697.4769.020557.1966.042929.3931.0653.5895.020587.1808.041173.3616.060346.5425.013139.124.024424.2483.035708.3725.017791.1959.035581.3918.060635.5867.050312.3914.090945.7832.127564 1.1761.029839.3201.063068.6403.097903.9597.014441.1325.029737.2649.045034.3973.028218.2443.056441.4886.079319.7337.029883.3204.060213.6415.098213.9603.02429.2038.04577.4078.06725.6118.019.1805.038.361.05893.5412l.00048.0041c.0369.318.07376.6356.09886.9552.01774.2261.04604.4514.07434.6767.01816.1446.03633.2892.0517.434.01771.1669.03245.334.04719.5012.01411.16.02821.3199.04492.4796.02229.2131.04707.426.07184.6388.01911.1641.03821.3282.05617.4924.01793.1639.03451.3279.05109.4919.01646.1627.03292.3255.05069.4881.01776.1622.03668.3242.05559.4863.02346.2009.04693.4019.06819.6031.01917.1813.03603.3628.05289.5444.01415.1525.02831.305.04385.4573.02841.278.05862.5558.08884.8337.01087.0999.02174.1998.03252.2998.01024.0949.02123.1897.03222.2846.02767.2388.05534.4777.07108.7183.0152.2316.04397.4623.07275.693.01642.1317.03284.2633.04675.3951.0107.1015.02245.2028.0342.3041.02697.2326.05394.4651.06829.6996.01366.2228.04382.4445.07399.6662.0191.1404.03821.2809.05313.4217.01342.1265.02207.2538.03072.381.01416.2082.02831.4163.0633.621.06062.3542.09305.7118.12074 1.0667.04577.5866.27855 1.08.686 1.475.45976.4458 1.03082.6607 1.68224.6045.33323-.0287.66588-.0641.99852-.0995.11162-.0119.22325-.0237.33489-.0354.44242-.0461.88476-.093 1.32709-.1398.12494-.0133.24988-.0265.37482-.0397.19786-.021.39572-.0419.59359-.0628.5401-.057 1.0802-.114 1.62025-.1718.3893-.0416.7785-.084 1.1678-.1264.7986-.0869 1.5972-.1739 2.3965-.2544.3391-.0342.6779-.0703 1.0168-.1063.7434-.0792 1.4867-.1583 2.2324-.2172.5126-.0405 1.0233-.104 1.5341-.1674.2661-.033.5322-.0661.7985-.0959.0978-.0109.1956-.0219.2935-.0329.5851-.0658 1.1702-.1317 1.7565-.185.5135-.0467 1.0283-.0944 1.5394-.1509.1119-.0123.224-.0243.3361-.0363.3806-.0408.762-.0816 1.1408-.1374.1235-.0181.2482-.0193.3722-.0205.1359-.0014.2709-.0027.4025-.0262.2431-.0435.4871-.068.7312-.0925.1037-.0104.2073-.0208.3109-.0327.3127-.0362.6258-.0684.9393-.0966.29-.0258.5792-.0619.8684-.098.2116-.0264.4233-.0528.6354-.0752.1829-.0193.3664-.0337.5499-.048.2911-.0227.5821-.0454.8703-.088.3777-.0557.7567-.0969 1.1357-.1381.2121-.023.4242-.0461.6361-.0716.4027-.0488.8064-.0896 1.21-.1305.1693-.0172.3386-.0343.5078-.0521.1346-.0141.2692-.0293.4037-.0445.3202-.0362.6403-.0723.9614-.0938.0433-.0029.0866-.0057.13-.0085.3392-.0222.6823-.0447 1.0092-.0976.33-.0534.6615-.0835.9927-.1135.2611-.0237.522-.0474.782-.0825.1844-.0249.3719-.0422.5591-.0594.1797-.0165.3592-.0331.5354-.0563.2064-.0272.4137-.0453.6211-.0634.2605-.0227.521-.0454.7801-.0863.2744-.0433.5529-.0654.8312-.0875.2355-.0188.4708-.0375.7033-.069.3036-.0412.6082-.0698.9128-.0984.3295-.031.659-.062.9871-.1088.6947-.0993 1.3949-.1648 2.0943-.2262.4296-.0376.8592-.0824 1.2877-.1271.0617-.0064.1235-.0129.1852-.0193.2119-.022.424-.0478.6363-.0736.2579-.0313.5161-.0627.7745-.0874.1056-.0101.2113-.0201.317-.0302.4151-.0394.8305-.0788 1.2436-.1239.4441-.0486.8914-.0977 1.336-.1511.5754-.0691 1.1527-.1218 1.73-.1745.3759-.0343.7519-.0686 1.1273-.1074.3021-.0313.6036-.0695.905-.1078.301-.0382.6019-.0763.9036-.1076.8086-.0836 1.6175-.164 2.4267-.2411.4282-.0408.857-.0921 1.2855-.1433.1636-.0195.3271-.0391.4905-.058.3843-.0446.7698-.0812 1.1552-.1178.2831-.0269.5661-.0537.8484-.0838.1523-.0162.3055-.0284.4554-.0404ZM21.1075 19.7037c.0643-.0689.1266-.0853.1838-.1003.015-.004.0296-.0078.0438-.0125.9576-.3147 1.8086-.7994 2.4508-1.5925.8458-1.0446 1.1766-2.2704 1.1792-3.5902.0018-.9566-.1586-1.8948-.4818-2.7973-.5324-1.4871-1.4745-2.61453-2.9326-3.27653-.9479-.43042-1.9543-.60205-2.9836-.6549-.8772-.04505-1.7512.01021-2.6243.1111-.6792.07846-1.3596.14638-2.0399.21431l-.0002.00001-.0002.00003c-.3979.03973-.7958.07945-1.1935.12129-.587.06177-1.1738.12549-1.7606.18921l-.0001.00002c-.4757.05166-.95146.10332-1.4273.15394-.47443.05049-.94897.10014-1.42351.14978-.68461.07162-1.36923.14324-2.05355.2174-.31004.03358-.30914.04205-.27641.34602l.00271.02369.00233.02061.13871 1.29622.0001.0009c.11258 1.0516.22517 2.1032.33662 3.1549.08292.7827.16499 1.5655.24705 2.3483l.00017.0016.00003.0003c.07117.6788.14235 1.3577.21407 2.0365.09274.8774.1861 1.7548.27946 2.6322l.00025.0023c.06605.6208.13211 1.2416.19795 1.8624.06681.63.13338 1.26.19996 1.8901.07232.6844.14463 1.3687.21725 2.0531.06871.6475.13769 1.295.20666 1.9425l.00008.0007c.0891.8364.17819 1.6728.26672 2.5092.09278.8788.18435 1.7577.27471 2.6367.00919.0891.01655.1538.14166.14.42222-.0462.84482-.0891 1.26743-.132h.0001c.30105-.0305.60205-.061.90285-.0928.482-.0508.9638-.103 1.4457-.1552.4184-.0454.8369-.0907 1.2555-.1352.4622-.049.9245-.0971 1.3869-.1453h.0004c.4456-.0464.8912-.0928 1.3368-.14.3725-.0395.745-.0801 1.1174-.1207l.0005-.0001c.69-.0752 1.3799-.1505 2.0706-.2187 1.2699-.1253 2.5153-.3569 3.6959-.8565 1.621-.6859 2.8476-1.7845 3.4168-3.4865.5775-1.7268.492-3.4631-.174-5.1471-.5534-1.3992-1.5175-2.4355-2.9539-2.9811-.6863-.2607-1.4024-.3743-2.1555-.4199ZM33.6691 5.90968l.6687-.07102c.1743-.05446.2078.06195.2233.21146l.0155.14966.0004.00363c.1612 1.55911.3225 3.11826.4877 4.67699.1081 1.019.2176 2.0379.3271 3.0568.1087 1.0114.2174 2.0228.3247 3.0343.0955.8998.1893 1.7998.2832 2.6998l.0007.0063c.0885.8483.1769 1.6966.2668 2.5448.1129 1.0666.2274 2.1331.342 3.1995v.0005l.0001.0005c.0733.683.1467 1.366.2196 2.049.034.3182.0674.6364.1008.9546l.0001.0007.0001.0006v.0006c.0721.6856.1441 1.3711.2215 2.056.0203.1803-.0418.2257-.21.2427-1.2964.1316-2.5923.2686-3.8881.4057l-.7849.083-.0808.0084c-.187.0195-.3742.0391-.5601.0668-.1178.0175-.1592-.0249-.1707-.1381-.1048-1.0268-.2121-2.0534-.3206-3.0799-.0888-.8405-.1783-1.6809-.2677-2.5214l-.0005-.0051-.0003-.0021-.0002-.002c-.0689-.648-.1379-1.296-.2066-1.944-.0682-.6434-.1361-1.2869-.2039-1.9304l-.0011-.0105-.0001-.0005c-.0704-.6674-.1408-1.3347-.2115-2.002-.0732-.6904-.1467-1.3807-.2203-2.0711-.1002-.9414-.2004-1.8829-.2999-2.8243-.0724-.6846-.144-1.3692-.2156-2.0539l-.0006-.0055c-.082-.7832-.1639-1.5664-.2469-2.3494-.0841-.79378-.1696-1.58738-.2552-2.38099l-.0001-.00127c-.0434-.40194-.0867-.80388-.1298-1.20584-.0021-.01924-.0032-.03865-.0043-.05804v-.00004c-.0019-.03271-.0037-.06539-.0101-.09719-.0285-.14036.017-.18818.1684-.2033.7728-.07738 1.545-.16138 2.3172-.24538l.0002-.00001.0001-.00002.0005-.00005c.2975-.03237.5951-.06474.8927-.09673.4732-.05087.9464-.10109 1.4247-.15185l.0038-.00041ZM57.6095 25.5598l-.0098-.0457-.0342.0614c-.2553.4574-.5005.8968-.8034 1.3027-.9984 1.3378-2.355 2.1087-3.9582 2.4685-1.8409.4133-3.6704.392-5.4691-.2316-2.0504-.7108-3.589-2.0556-4.7493-3.8622-1.026-1.5975-1.6332-3.3559-2.0043-5.2068-.3193-1.5929-.4926-3.2002-.4652-4.8241.0323-1.9181.3457-3.7833 1.1562-5.54089 1.1879-2.57564 3.1169-4.34067 5.7988-5.27193 1.1013-.38247 2.2406-.56753 3.4033-.64103 1.2837-.08123 2.5521-.02235 3.8008.30651 1.9167.50472 3.3893 1.63643 4.5468 3.21524.4007.54657.7498 1.124 1.0671 1.72239.0735.13827.0513.19973-.0789.27565a1156.07225 1156.07225 0 0 0-4.6716 2.73936c-.1371.0809-.185.0456-.2337-.0908-.249-.6987-.5789-1.3562-1.0947-1.8975-.8722-.91493-1.9751-1.22394-3.203-1.15031-.9297.05576-1.7965.31405-2.5525.88261-.873.6565-1.3984 1.5475-1.7092 2.5737-.4312 1.4231-.4586 2.8796-.3336 4.3481.096 1.1272.2576 2.2427.57 3.3312.3033 1.0569.7217 2.0601 1.4383 2.9157.7634.9116 1.7433 1.4147 2.9177 1.5407 1.1625.1246 2.2864-.0212 3.3305-.5726 1.3199-.6969 1.9852-1.8072 2.023-3.2973.0059-.2313-.0115-.4612-.0289-.6911v-.0001c-.0061-.0809-.0122-.1619-.0173-.243-.0091-.1438-.0498-.1812-.2038-.1641-1.0107.1119-2.0219.2189-3.0331.3259-.532.0562-1.064.1125-1.5959.1695-.1223.0132-.1906.0002-.2055-.1489-.1345-1.3373-.2725-2.6743-.4204-4.0102-.0174-.1573.0514-.1752.1649-.1871l.6906-.072.003-.0003c.9431-.0983 1.8862-.1966 2.8292-.2963.7438-.0787 1.4875-.1582 2.2313-.2377.6001-.0641 1.2001-.1282 1.8003-.192.2176-.0231.4354-.0454.6531-.0677l.0004-.0001.0019-.0002c.4094-.0419.8188-.0839 1.2276-.1309.1648-.019.2122.029.2294.1961.1237 1.2062.2526 2.4119.3815 3.6176.0597.5589.1195 1.1178.1787 1.6767.0796.7508.1581 1.5018.2367 2.2527l.0002.0018.0002.002.0008.0078c.0748.7149.1496 1.4297.2252 2.1445.0727.6869.1468 1.3736.2209 2.0604l.0001.0014.0002.0013c.0397.368.0794.736.1189 1.104.0025.0236.0039.0474.0052.0712v.0001c.0021.0357.0041.0713.0101.1063.0204.119-.0156.171-.1465.1842-1.1892.1202-2.3781.2441-3.566.3761-.1435.0159-.1555-.0515-.1731-.1503l-.0015-.0083c-.1332-.7441-.2684-1.4879-.4036-2.2317l-.0008-.004-.0755-.4155c-.006-.0332-.0131-.0662-.0203-.0991Z" clip-rule="evenodd"/>
  <path fill="#FE9D43" d="M40.4816 38.141c-.1201.2747-.144.5695-.1994.8547-.1773.9113-.336 1.8262-.505 2.7392-.173.9342-.3516 1.8673-.5242 2.8015-.1391.7533-.2826 1.506-.4042 2.2622-.0473.2945-.2868.2268-.4323.2325-.5813.0226-1.1493.1468-1.7267.192-.1237.0097-.1678-.0595-.2067-.1535-.1425-.3444-.2871-.688-.4302-1.0321-.3141-.7555-.6296-1.5104-.9413-2.2669-.3175-.7707-.6281-1.5442-.9472-2.3143-.3474-.8382-.7011-1.6739-1.0521-2.5107-.0114-.0273-.0225-.0554-.0824-.0507-.0385.055-.0219.1264-.0127.1954.0848.6359.173 1.2714.2547 1.9078.0902.7025.1809 1.405.2596 2.1088.0846.7562.153 1.5142.2329 2.2709.0664.6314.1369 1.2623.2117 1.8927.0234.1958-.0177.2441-.2639.2649-.5477.0464-1.0922.1307-1.6435.1361-.1404.0014-.2573.1087-.4073.0906-.0837-.0101-.1443-.0206-.154-.1171-.0421-.4224-.1348-.8377-.1444-1.2655-.0068-.2983-.0516-.5985-.1087-.8921-.0425-.2181-.0496-.4407-.0587-.6555-.0148-.3466-.0927-.6827-.1221-1.0259-.0206-.2392-.0103-.4814-.0611-.7236-.0775-.3699-.1234-.7524-.1277-1.1301-.0039-.3495-.0973-.6831-.1129-1.0301-.0202-.4509-.0853-.9008-.1502-1.3483-.0306-.2114-.0327-.4248-.0525-.6356-.0474-.503-.1338-1.002-.1483-1.5095-.0086-.3033-.0847-.6044-.1239-.9073-.023-.1779-.0193-.3177.2358-.3392.7988-.0674 1.5954-.1609 2.3928-.2448.3765-.0396.7544-.0705 1.1287-.1251.1606-.0235.2229.0327.2777.1709 1.0087 2.5422 2.0971 5.0533 2.9896 7.6411.0231.0669.053.1316.1199.1918.0652-.4353.1404-.8693.1936-1.306.1846-1.5162.5006-3.0107.7352-4.5184.1026-.6593.2517-1.3106.3182-1.9768.0199-.2003.0885-.402.1227-.6057.021-.1254.1301-.1099.211-.1191.487-.055.9762-.0925 1.4617-.1573.3795-.0507.7612-.0748 1.141-.1439.2858-.0521.5959-.0416.8946-.071.093-.0091.1084.0527.1156.1261.061.6266.1082 1.2551.1908 1.8789.0471.3555.0198.7202.1534 1.0686.0534.1393-.0078.3119.0119.4739.0974.8061.1802 1.6141.2649 2.4217.0363.3455.0425.6957.1022 1.0368.0752.431.0622.8688.1317 1.2985.1123.6941.1311 1.3978.219 2.0943.0407.3225.0628.6475.1082.9693.0179.127.0009.1777-.1386.1744-.5194-.0123-1.0245.1273-1.5424.1557-.21.0115-.4328.0501-.6473.0884-.0964.0172-.1284-.0123-.1361-.0858-.0312-.2975-.0519-.5962-.0844-.8935-.0373-.3415-.1031-.6811-.1194-1.0233-.0151-.3172-.1007-.6238-.1105-.9391-.0149-.4761-.0888-.9461-.1401-1.418-.0375-.3436-.0685-.6871-.0815-1.0318-.0208-.5458-.118-1.0829-.1693-1.6245-.0248-.2613-.0702-.5245-.0496-.7928.0197-.2555-.0564-.5038-.1163-.7548M7.06925 43.5854c-.07471-.7781.05116-1.5415.31695-2.264.6409-1.7425 1.91048-2.7931 3.7164-3.1796 1.0425-.2231 2.0947-.2545 3.1297.0604 1.0012.3046 1.7282.9612 2.2657 1.8394.2734.4468.2638.4513-.1902.7044-.6095.3399-1.2194.6791-1.8257 1.0247-.1237.0705-.1809.0721-.2403-.0789-.334-.8498-.9439-1.3314-1.8774-1.3199-.9898.0123-1.7453.4211-2.1569 1.3618-.31671.7239-.33919 1.4879-.27715 2.2548.06106.7552.18615 1.5005.51295 2.197.471 1.0035 1.2289 1.4849 2.3174 1.4235.4955-.0279.9824-.1256 1.4107-.4141.584-.3935.8593-1.1051.7499-1.8062-.0189-.1209-.0902-.1039-.1788-.0946-.6867.0723-1.3746.1334-2.0604.2135-.1649.0193-.2229-.0137-.2378-.1815-.0487-.5444-.1095-1.0877-.1702-1.6311-.0129-.1148.0021-.1715.1401-.1854 1.3953-.1402 2.7896-.2903 4.1848-.4325.4713-.0481.4544-.04.4919.4275.0491.6108.1303 1.219.196 1.8284.0512.4776.1014.9552.1504 1.433.0796.7716.1538 1.5439.2423 2.3146.0122.1067.0027.1223-.0998.1593-.2977.1075-.6072.0794-.9104.1179-.1806.0229-.3606.0514-.5407.0782-.2385.0354-.368.0669-.3823-.2692-.0133-.3167-.1571-.6198-.1719-.9425-.0015-.0341-.017-.0612-.0498-.0597-.0496.0024-.0711.0432-.0931.0836-.0919.1692-.2.3272-.3187.4794-.4096.5253-.9552.834-1.5783 1.0412-.4588.1525-.9236.1997-1.4031.2249-.781.0412-1.5126-.1211-2.19981-.4657-.88055-.4415-1.52337-1.1316-1.98113-2.0024-.39134-.7446-.64549-1.527-.76409-2.3619-.07449-.5245-.16789-1.0438-.11722-1.5783M57.1356 41.081c.2954.274.5761.5003.8918.6825 1.0194.5884 2.1083.8197 3.2745.6373.3472-.0544.6897-.1391.9757-.3694.4997-.4022.4284-1.2197-.1324-1.5289-.2326-.1281-.4899-.1512-.7419-.2001-.7562-.1468-1.5221-.2342-2.286-.3158-.6037-.0645-1.1546-.2769-1.7014-.4936-.4777-.1893-.8503-.5479-1.126-.9938-.2874-.465-.4202-.9682-.4481-1.5145-.0223-.435-.0227-.8588.1225-1.2744.2398-.6863.6309-1.2649 1.1949-1.7284.7956-.654 1.7343-.9446 2.7319-1.0701.9202-.1157 1.8377-.1021 2.7374.167.7629.2281 1.4429.6049 2.0548 1.1136.1475.1227.1555.2239.065.3862-.2547.4562-.5298.9013-.7321 1.3872-.0558.1338-.1573.2624-.2452.3877-.0834.1189-.1367-.0086-.1905-.0489-.5192-.3896-1.0484-.7701-1.6783-.9536-.6699-.1953-1.3498-.2407-2.04-.053-.2212.0601-.4461.0979-.6475.2122-.3399.1928-.5168.485-.5057.8778.0113.401.2551.6332.6.7798.4087.1736.8482.2032 1.2808.2687.7842.1186 1.5788.1739 2.3493.3773.8212.2168 1.5643.5743 2.0235 1.3229.4491.732.5423 1.5458.4366 2.3933-.1009.8087-.4723 1.47-1.0553 2.0175-.4575.4296-1.0048.7058-1.5966.9169-.7708.2749-1.5688.3862-2.3725.3753-.8017-.0108-1.5965-.1296-2.3647-.4077-.6836-.2474-1.2945-.6049-1.8651-1.0447-.1313-.1012-.1371-.2046-.0505-.3435.1044-.1673.1871-.3481.2795-.5228.2498-.4726.4999-.9451.7616-1.44M46.5315 45.5204c-.032-.3256-.0776-.6543-.1197-.9823-.0399-.3111-.0968-.6234-.1172-.9394-.0238-.37-.0307-.7431-.12-1.1072-.0314-.1281-.022-.2629-.0391-.3949-.0624-.4806-.0922-.9655-.1511-1.4467-.063-.5146-.1237-1.0317-.1553-1.5464-.0314-.5133-.1389-1.0155-.1535-1.5311-.0132-.4653-.138-.9268-.1622-1.3927-.0229-.4409-.097-.8729-.1483-1.3087-.0219-.1854.0587-.2475.2307-.265 1.1519-.1172 2.3031-.2401 3.4546-.3614 1.3069-.1377 2.6146-.269 3.9197-.4225.1535-.0181.3105-.0257.4622-.0542.1839-.0347.2497.0251.2653.208.0564.6625.1214 1.3244.192 1.9856.0112.105.0017.1465-.1124.1568-.8375.0759-1.6749.154-2.5116.2376-.8496.0848-1.6983.1782-2.5477.2645-.3116.0317-.3124.0272-.2817.3312.0629.6204.1319 1.2403.1856 1.8616.0135.1569.0791.1804.2131.1658.6568-.0715 1.3143-.1373 1.9715-.2058.6941-.0724 1.3884-.1427 2.0818-.221.1072-.012.1366.0061.1482.118.0643.6239.1372 1.2471.2126 1.8698.0145.1194-.0272.1578-.1397.1957-.3382.1138-.6899.0605-1.0336.103-1.0166.1259-2.037.2217-3.0566.3224-.131.013-.1385.0766-.1276.1767.0751.6863.152 1.3724.2203 2.0594.0152.154.1098.1312.2048.1214.6346-.065 1.2691-.1312 1.9035-.1981.5021-.0529 1.0041-.1067 1.506-.1616.5962-.0655 1.1928-.1285 1.7882-.2012.2873-.0351.3128-.0302.349.2603.0758.6078.1428 1.2166.216 1.8248.0216.1786-.017.2599-.2306.2708-.5885.0301-1.1793.0672-1.7615.153-.6431.0947-1.2886.1645-1.9341.2305-.2935.03-.5926.0287-.887.0665-.4931.0632-.9836.1678-1.4782.1907-.5293.0245-1.0467.1552-1.5769.1447-.1208-.0024-.2239.0633-.3478.0558-.281-.0171-.3655-.1083-.3431-.4074.0056-.074.0075-.1482.0114-.227"/>
  <path fill="#FE9D43" fill-rule="evenodd" d="M29.043 48.0172c.101-.0174.2032-.035.3072-.0498.0686.0192.1415.0054.216-.0086.0449-.0084.0904-.017.1358-.0186.1965-.0067.1729-.0844.1145-.2123-.2268-.497-.4528-.9944-.674-1.494-.4146-.9361-.8284-1.8725-1.2421-2.8089-.3703-.838-.7406-1.6759-1.1114-2.5137-.1813-.4094-.3631-.8187-.5449-1.2279-.4023-.9054-.8046-1.8108-1.2008-2.7189-.0679-.1555-.1488-.1901-.3009-.1701-.3359.0442-.6729.0799-1.0099.1155-.0247.0026-.0494.0053-.0741.0079-.2556.027-.5112.0534-.7668.0798-.3646.0376-.7291.0752-1.0935.1147-.005.0006-.01.0011-.0149.0016-.0889.0092-.1615.0167-.1931.1611-.2178.9927-.4237 1.9877-.629 2.9831-.079.3833-.1617.7658-.2445 1.1483-.1138.5265-.2277 1.0529-.3319 1.5816-.0985.4992-.2099.9959-.3212 1.4925-.071.3166-.1419.6331-.2096.9503-.0794.3727-.1555.7461-.2316 1.1195-.0689.3383-.1378.6765-.2092 1.0142-.0509.2402-.1071.4794-.1633.7185-.0306.1299-.0612.2599-.0909.3901-.0763.3346.0181.4271.3382.3754.2193-.0354.4404-.0594.6615-.0835.1418-.0154.2836-.0308.4249-.0493.3637-.0474.7285-.074 1.0945-.0952.1667-.0097.2439-.1193.2708-.2924.0558-.3587.1164-.7167.177-1.0747.0612-.3615.1224-.723.1787-1.0852.0313-.2019.1283-.3073.3242-.3251.2291-.0208.4583-.0406.6875-.0604.3649-.0315.7297-.0631 1.0941-.0987l.0299-.0029c.3542-.0347.7095-.0694 1.0594-.1319.3468-.0618.558-.0103.6432.2249.1366.3769.2868.7483.4369 1.1196.1051.2597.2101.5194.3104.7809.0029.0076.0058.0151.0086.0225.0865.2262.1415.37.4544.3203.0465-.0074.093-.015.1395-.0226.2911-.0474.5849-.0952.8853-.0985.22-.0025.4396-.0403.6651-.0791Zm-5.5559-8.7053.0515-.0106c.0466.1256.0927.2514.1388.3771.1011.2761.2022.5522.3092.826.3003.7688.6038 1.5363.9074 2.3038.0862.218.1725.436.2586.6541.093.2353.0864.249-.1565.2742-.1967.0205-.3935.0406-.5903.0607-.4963.0507-.9926.1014-1.4882.1577-.1675.0191-.1625-.0475-.1398-.1748.0173-.0973.0347-.1945.0521-.2918.148-.8287.296-1.6575.4305-2.4884.0624-.386.111-.7743.1596-1.1626.022-.1752.0439-.3504.0671-.5254Z" clip-rule="evenodd"/>
  <path fill="#FEFEFE" fill-rule="evenodd" d="M23.263 20.1235c-.6863-.2607-1.4024-.3743-2.1556-.4199.0644-.069.1267-.0853.1838-.1003.015-.004.0296-.0078.0438-.0125.9577-.3147 1.8087-.7994 2.4509-1.5926.8458-1.0445 1.1766-2.2703 1.1792-3.5901.0018-.9566-.1586-1.8948-.4818-2.7974-.5325-1.4871-1.4746-2.61445-2.9326-3.27645-.9479-.43041-1.9543-.60205-2.9836-.6549-.8773-.04505-1.7513.01026-2.6244.1111-.6792.07846-1.3595.14639-2.0399.21432-.398.03974-.796.07948-1.1938.12132-.5869.06176-1.1735.12547-1.7602.18917-.4759.05168-.95179.10336-1.42781.15401-.47447.05049-.94904.10013-1.42362.14978-.68458.07162-1.36916.14324-2.05344.21739-.31004.03358-.30915.04206-.27641.34603.00078.00732.00164.01464.0025.02196.00088.00743.00175.01487.00254.02233.04618.4321.09245.86424.13871 1.29634.11262 1.0518.22524 2.1037.33671 3.1557.08298.7832.16509 1.5664.24721 2.3497.07119.679.14238 1.358.21412 2.037.09273.8774.18609 1.7547.27945 2.6321.06614.6216.13229 1.2432.1982 1.8648.06683.6301.13343 1.2604.20002 1.8906.0723.6842.1446 1.3684.2172 2.0526.06872.6476.13771 1.2952.20669 1.9428.08911.8365.17822 1.673.26677 2.5096.09278.8788.18435 1.7577.27471 2.6367.00919.0891.01655.1538.14166.14.42225-.0462.84488-.0891 1.26752-.132.30097-.0305.60197-.0611.90287-.0928.482-.0509.9638-.1031 1.4457-.1553.4184-.0453.8369-.0906 1.2555-.1351.4622-.0491.9245-.0972 1.3868-.1453.4458-.0464.8916-.0928 1.3373-.14.3744-.0397.7487-.0805 1.1231-.1213.6882-.0751 1.3764-.1502 2.0653-.2182 1.27-.1254 2.5154-.3569 3.696-.8565 1.621-.6859 2.8476-1.7846 3.4168-3.4866.5775-1.7267.492-3.463-.1741-5.147-.5533-1.3992-1.5174-2.4355-2.9538-2.9811Zm-2.4299 5.2329c.0067-.1403-.0161-.3394-.0459-.5378-.1061-.7068-.364-1.3356-.9669-1.7648-.6191-.4409-1.3326-.5191-2.0633-.4656-.4843.0355-.9674.0885-1.4504.1415h-.0004c-.1659.0182-.3318.0364-.4978.0539-.2913.0306-.5825.0626-.8738.0945H14.9342c-.6304.0692-1.2608.1383-1.8924.1948-.2353.0211-.2486.1181-.2273.3073.0999.8861.1944 1.7727.2888 2.6594l.0633.5935.0374.3478v.0001c.0488.452.0976.9041.1391 1.3568.017.1857.0649.2993.2805.2418.0314-.0084.0647-.0095.098-.0106.0191-.0006.0382-.0012.0571-.0032.2783-.0296.5568-.0585.8352-.0874h.0001l.0001-.0001c.6735-.0699 1.3469-.1398 2.0192-.2193.2155-.0255.4315-.0458.6476-.0662.4855-.0458.9711-.0916 1.4496-.1952 1.3734-.2972 2.1243-1.2165 2.1026-2.6412Zm-4.3802-12.792c-.0516.0023-.1033.0037-.155.0052h-.0001c-.1117.0032-.2234.0064-.3341.018-.454.0476-.908.0961-1.3619.1446l-.0023.0002c-.8806.0941-1.7611.1882-2.6423.2756-.1863.0185-.2341.0698-.2139.2533.1815 1.6519.357 3.3046.5276 4.9576.0188.1811.0618.2545.269.2304.7295-.085 1.4599-.1619 2.1904-.2387h.0002c.3543-.0373.7086-.0745 1.0628-.1127.0666-.0072.1332-.0141.1999-.0211.5751-.0599 1.1503-.1198 1.6962-.3368.8334-.3314 1.3533-.9207 1.4843-1.8197.0916-.6281.0171-1.2436-.1985-1.8399-.2488-.6884-.7252-1.1434-1.4246-1.3627-.3572-.112-.724-.1553-1.0977-.1533Z" clip-rule="evenodd"/>
  <path fill="#FEFEFE" d="M57.5998 25.514c-.2677.4795-.5213.9401-.8376 1.3641-.9985 1.3378-2.3551 2.1087-3.9583 2.4686-1.8409.4132-3.6704.392-5.4691-.2317-2.0504-.7108-3.589-2.0556-4.7493-3.8622-1.026-1.5975-1.6332-3.3558-2.0043-5.2068-.3193-1.5928-.4927-3.2002-.4652-4.824.0323-1.9182.3457-3.7834 1.1562-5.54099 1.1879-2.57559 3.1168-4.34066 5.7987-5.27188 1.1015-.38247 2.2407-.56753 3.4035-.64108 1.2836-.08118 2.552-.0223 3.8008.30651 1.9166.50473 3.3892 1.63648 4.5467 3.21529.4007.54656.7498 1.12395 1.0672 1.72234.0734.13832.0512.19978-.0789.27569a1133.16041 1133.16041 0 0 0-4.6717 2.73942c-.1371.0808-.185.0456-.2336-.0908-.2491-.6988-.5789-1.3563-1.0948-1.8975-.8722-.91503-1.9751-1.22404-3.203-1.1504-.9297.0558-1.7965.31409-2.5525.8826-.873.6565-1.3983 1.5475-1.7092 2.5737-.4312 1.4232-.4585 2.8796-.3336 4.3481.096 1.1272.2577 2.2427.57 3.3312.3033 1.057.7217 2.0601 1.4383 2.9157.7634.9116 1.7433 1.4148 2.9177 1.5407 1.1625.1246 2.2863-.0212 3.3305-.5725 1.3198-.697 1.9852-1.8073 2.023-3.2974.008-.3129-.0266-.6229-.0462-.9341-.0091-.1439-.0498-.1812-.2038-.1642-1.5424.1707-3.086.3301-4.629.4954-.1223.0132-.1906.0002-.2055-.1489-.1345-1.3373-.2725-2.6743-.4204-4.0101-.0174-.1573.0514-.1753.1649-.1871 1.1743-.1226 2.3487-.2445 3.5228-.3687 1.344-.1422 2.6877-.287 4.0316-.4296.6276-.0667 1.256-.1269 1.883-.199.1648-.0189.2123.029.2294.1961.181 1.7654.3732 3.5296.5602 5.2944.1557 1.4694.3076 2.9392.4631 4.4087.1118 1.0559.2268 2.1114.3401 3.1671.0063.0591.0053.1193.0154.1777.0203.1189-.0157.171-.1466.1842-1.1892.1202-2.3781.244-3.566.376-.1475.0164-.156-.0552-.1745-.1586-.1583-.8841-.3194-1.7676-.48-2.6512-.0088-.0485-.02-.0965-.03-.1448M34.3377 5.83869c.1743-.05446.2078.06195.2234.21146.1665 1.61021.3329 3.22046.5036 4.83025.2154 2.0306.4364 4.0606.6518 6.0912.1856 1.75.3653 3.5007.5506 5.2508.1853 1.7501.3749 3.4996.5618 5.2495.1072 1.0042.2091 2.009.3224 3.0125.0204.1803-.0418.2257-.2099.2428-1.5582.1581-3.1155.3241-4.673.4886-.2139.0225-.4283.0435-.641.0752-.1178.0175-.1591-.0249-.1707-.1381-.105-1.0268-.2118-2.0534-.3205-3.0798-.1576-1.4917-.3172-2.9831-.4753-4.4746-.1393-1.3144-.2773-2.629-.4166-3.9434-.1731-1.6319-.3478-3.2636-.5202-4.8955-.1553-1.4695-.3074-2.9393-.4631-4.4088-.1267-1.1962-.2568-2.39205-.3852-3.58808-.0055-.05169-.0041-.10459-.0144-.15526-.0284-.14036.0171-.18818.1685-.2033 1.0709-.10722 2.1405-.22716 3.2107-.34219.6937-.07458 1.3875-.14777 2.0971-.22328"/>
  <path fill="#FE9D43" d="M20.8331 25.3564c.0217 1.4247-.7292 2.344-2.1026 2.6412-.6914.1497-1.3977.1787-2.0972.2614-.9503.1124-1.903.2056-2.8547.3068-.0516.0055-.1057.0006-.155.0138-.2156.0575-.2635-.0561-.2805-.2418-.0522-.5689-.1158-1.1366-.1765-1.7047-.1159-1.0844-.2299-2.1691-.3521-3.2529-.0213-.1892-.008-.2863.2273-.3073.9234-.0827 1.8444-.1922 2.7666-.2894.6492-.0684 1.2978-.1476 1.9486-.1953.7306-.0535 1.4442.0247 2.0633.4655.6029.4293.8608 1.058.9669 1.7648.0298.1985.0526.3976.0459.5379M16.4529 12.5644c.3737-.002.7405.0413 1.0978.1533.6993.2193 1.1757.6743 1.4245 1.3627.2156.5964.2901 1.2118.1986 1.8399-.131.899-.651 1.4883-1.4843 1.8197-.6092.2422-1.2549.2887-1.8962.3579-1.0845.1169-2.1699.2251-3.2533.3514-.2073.0241-.2503-.0493-.269-.2304-.1705-1.6531-.3464-3.3056-.5277-4.9576-.0202-.1835.0277-.2348.2139-.2533 1.3362-.1325 2.6709-.2804 4.0065-.4204.1621-.0169.3261-.0159.4892-.0232"/>
</svg>