<svg xmlns="http://www.w3.org/2000/svg" fill="none" viewBox="0 0 14 14">
  <path fill="#9D9D9D" fill-rule="evenodd" d="M2.05025.636033c-.39053-.390524-1.02369-.390524-1.414217 0-.390524.390527-.390524 1.023687 0 1.414217L5.58578 6.99999.636033 11.9497c-.390524.3906-.390524 1.0237 0 1.4143.390527.3905 1.023687.3905 1.414217 0l4.94974-4.94979L11.9497 13.364c.3906.3905 1.0237.3905 1.4143 0 .3905-.3906.3905-1.0237 0-1.4143L8.41421 6.99999 13.364 2.05025c.3905-.39053.3905-1.02369 0-1.414217-.3906-.390524-1.0237-.390524-1.4143 0L6.99999 5.58578 2.05025.636033Z" clip-rule="evenodd"/>
</svg>