<svg xmlns="http://www.w3.org/2000/svg" fill="none" viewBox="0 0 16 16">
  <path fill="#9D9D9D" fill-rule="evenodd" d="m12.6099 11.1987 3.0968 3.0981v.0014c.3893.3893.3893 1.0205 0 1.4098s-1.0205.3893-1.4099 0l-3.0981-3.0981c-2.48736 1.8614-5.90373 1.8614-8.39111 0-3.096516-2.3171-3.728327-6.70579-1.41118-9.80231C3.71356-.288926 8.10223-.920737 11.1987 1.39641c3.0966 2.31715 3.7284 6.70582 1.4112 9.80229ZM2.04601 7.02899c0 2.75204 2.23094 4.98301 4.98298 4.98301 2.75082-.003 4.98001-2.23222 4.98301-4.98301 0-2.75204-2.23097-4.98298-4.98301-4.98298S2.04601 4.27695 2.04601 7.02899Z" clip-rule="evenodd"/>
</svg>