<svg xmlns="http://www.w3.org/2000/svg" fill="none" viewBox="0 0 14 14">
  <path fill="#555" fill-rule="evenodd" d="M5.55297 3.80663 8.39855.961077c1.28144-1.281436 3.35895-1.281436 4.64035 0 1.2814 1.281433 1.2814 3.358953 0 4.640393l-2.8455 2.84555c-.0028.00273-.0058.00495-.0088.00717-.0031.00224-.0061.00447-.0089.00722-1.31594 1.29784-3.40757 1.20077-4.62273-.01439-.20152-.20152-.3599-.42738-.49804-.6621l.49804-.49804c.31979-.31973.84035-.31973 1.16009 0 .61733.61734 1.67532.64493 2.32019 0-.16453.16459 2.73645-2.73639 2.84555-2.84555.6398-.63976.6398-1.68038 0-2.32014-.6398-.63982-1.6804-.63982-2.32019 0L7.62732 4.05248c-.66757-.26032-1.38772-.33032-2.08873-.22821.0027-.00273.0049-.00574.0071-.00874.00225-.00307.0045-.00613.00728-.0089ZM4.44134 11.8788l1.93752-1.9375c.6676.2603 1.38772.3303 2.08873.2282-.00268.0027-.00487.0057-.00705.0087-.00227.0031-.00453.0062-.00733.009L5.60145 13.039c-1.28138 1.2813-3.35896 1.2813-4.640393 0-1.281437-1.2815-1.281382-3.35905 0-4.64043L3.81284 5.54678c.00277-.00275.00581-.00499.00884-.00722.00303-.00223.00606-.00446.0088-.00719 1.31983-1.30167 3.40993-1.19847 4.62276.01441.20152.20147.3599.42733.49804.66205l-.49804.49804c-.31976.31978-.84036.31978-1.16009 0-.61734-.61734-1.67532-.64488-2.32019 0L2.1212 9.55863c-.63982.63977-.63982 1.68037 0 2.32017.63976.6398 1.68038.6398 2.32014 0Z" clip-rule="evenodd"/>
</svg>