<svg xmlns="http://www.w3.org/2000/svg" fill="none" viewBox="0 0 14 12">
  <path fill="#555" d="M14 1.8475c-.525.2275-1.0675.385-1.645.455.595-.35 1.05-.91 1.26-1.5925-.56.3325-1.1725.56-1.82.7C11.27.85 10.5175.5 9.695.5c-1.5925 0-2.87 1.295-2.87 2.87 0 .2275.0175.4375.07.6475-2.38-.105-4.48-1.26-5.8975-2.9925-1.015 1.82.1225 3.325.875 3.8325-.455 0-.91-.14-1.295-.35 0 1.4175.9975 2.59 2.2925 2.8525-.28.0875-.91.14-1.295.0525C1.9425 8.55 3.01 9.39 4.2525 9.4075c-.98.77-2.415 1.3825-4.2525 1.19 1.2775.8225 2.7825 1.295 4.41 1.295 5.285 0 8.155-4.375 8.155-8.155 0-.1225 0-.245-.0175-.3675.595-.4375 1.085-.945 1.4525-1.5225Z"/>
</svg>