<svg width="35" height="24" viewBox="0 0 35 24" fill="none" xmlns="http://www.w3.org/2000/svg">
<path fill-rule="evenodd" clip-rule="evenodd" d="M33.7838 18.8132C33.7838 18.8132 34.125 16.0512 34.125 13.2892V10.7C34.125 7.93798 33.7838 5.17811 33.7838 5.17811C33.7838 5.17811 33.4511 2.82562 32.4273 1.78907C31.2575 0.563489 29.9593 0.438285 29.2263 0.367586C29.1467 0.359913 29.0738 0.352881 29.0084 0.345155C24.233 -0.000361248 17.0689 -0.000361248 17.0689 -0.000361248H17.0561C17.0561 -0.000361248 9.892 -0.000361248 5.11662 0.345155C5.05126 0.352881 4.97835 0.359913 4.89879 0.367586C4.16573 0.438285 2.86751 0.563489 1.69772 1.78907C0.67397 2.82562 0.34125 5.17811 0.34125 5.17811C0.34125 5.17811 0 7.93798 0 10.7V13.2892C0 16.0512 0.34125 18.8132 0.34125 18.8132C0.34125 18.8132 0.67397 21.1636 1.69772 22.2001C2.7724 23.3261 4.12834 23.4896 4.99342 23.5939C5.17218 23.6155 5.32998 23.6345 5.46001 23.659C8.19001 23.9192 17.0625 24.0002 17.0625 24.0002C17.0625 24.0002 24.233 23.9895 29.0084 23.644C29.0738 23.6363 29.1467 23.6293 29.2263 23.6216C29.9593 23.5509 31.2575 23.4257 32.4273 22.2001C33.4511 21.1636 33.7838 18.8132 33.7838 18.8132ZM22.7597 11.6491L13.5395 16.4266L13.5374 6.83744L22.7597 11.6491Z" fill="white"/>
</svg>
